<svg width="383" height="512" viewBox="0 0 383 512" fill="none" xmlns="http://www.w3.org/2000/svg">
<path fill-rule="evenodd" clip-rule="evenodd" d="M0 65C0 29.1015 29.1016 0 65 0H352.09C368.658 0 382.09 13.4315 382.09 30V482C382.09 498.569 368.658 512 352.09 512H65C29.1016 512 0 482.899 0 447V65ZM24 447C24 424.909 41.9087 407 64 407H350C353.314 407 356 409.686 356 413V435H78C70.8203 435 65 440.82 65 448C65 455.18 70.8203 461 78 461H356V481C356 484.314 353.314 487 350 487H64C41.9087 487 24 469.091 24 447Z" fill="#FF9900"/>
</svg>
